<svg version="1.2" xmlns="http://www.w3.org/2000/svg" viewBox="0 0 512 512" width="512" height="512">
	<title>025-pilates-svg</title>
	<style>
		.s0 { fill: #000000 } 
	</style>
	<g id="Layer">
		<path id="Layer" fill-rule="evenodd" class="s0" d="m512 401.6c0 11.4-9.3 20.8-20.8 20.8h-470.4c-11.5 0-20.8-9.4-20.8-20.8 0-11.5 9.3-20.8 20.8-20.8h216.4c-10.4-14-21.7-33-60.4-69.5-3-2.8-3.1-7.6-0.3-10.6 2.9-3 7.6-3.1 10.6-0.3 41.2 38.9 52.4 58.4 68.6 80.4h57.4l15.9-21.8c-26.4-4.6-43.4-11.8-59.2-33.8-53.3-43.8-96.7-63.7-125.4-79.7l-9.6 9.9c8.1 6.8 15.8 13 25.9 21.4 3.1 2.7 3.5 7.5 0.8 10.6-2.6 3.2-7.4 3.6-10.5 0.9-39.3-33.1-37.4-31.3-42.6-33-2-1.2-20-3.1-23.3-21.4l-6.9-36.9c-3.3-17.8 20.1-27.4 30.3-12.8l13.6 19.7c8.7 12.7 17.2 18.3 25.3 26 27.6 16 71.8 35.4 126.9 79.7 12-15.8 11.1-30.6 9.9-47.5-1-16-2.2-33.8 8.8-52.8q-2.5-1.4-4.8-3c-10.9-7.7-18.2-19.3-20.4-32.5l-1.8-10.3c-4.7-27.3 13.7-53.3 41-58 6.4-1.1 12.9-0.9 19.1 0.5 5.7-15.5 24.4-21.2 37.8-11.8 11.2 7.9 13.8 23.5 5.9 34.7-2.1 3-4.8 5.4-7.9 7.2q2 5 3 10.4l1.8 10.4c2.2 13.2-0.8 26.5-8.5 37.4q-0.6 0.8-1.2 1.6c20.2 8.4 34.2 28 35.4 50.1 0.7 12.8-0.4 25.4-3.1 37.6l26.4 42.3c8.1 13 13.4 27.3 15.8 42.5l1.9 12.4h57.8c11.5 0 20.8 9.3 20.8 20.8zm-399-160.6q5.5 1.8 10.2 4.9l9-9.4c-3.7-3.6-13-10.5-22.5-24.1l-13.6-19.6c-0.9-1.5-3.5-0.4-3.2 1.4l6.9 37c1.5 8.2 10.1 8.3 13.2 9.8zm227.2-129.7q2.1 1.3 4.2 2.7c3.7 2.7 7 5.7 9.8 9.2 6.5-3.5 6.9-12.6 1-16.7-5.4-3.8-12.9-1.4-15 4.8zm-53.5 23.4q-2.2 3.2-3.7 6.7l20.5-3.6c11.8-2 23 6 25 17.7 0.3 1.6 1.2 3.1 2.4 4.1l19.9 16c1.6-5.2 2-10.7 1.1-16.2l-1.8-10.4c-1.6-9.2-6.7-17.3-14.4-22.7-6-4.3-13-6.5-20.2-6.5q-3 0-6 0.5c-9.3 1.6-17.3 6.7-22.8 14.4zm10.2 59.3c7.7 5.5 17 7.6 26.2 6 7.9-1.4 15-5.3 20.3-11.1l-21.9-17.7c-4.1-3.3-6.8-8-7.7-13.2-0.7-3.6-4.1-6-7.7-5.4l-25.8 4.4q0.1 2 0.5 3.9l1.7 10.4c1.6 9.2 6.7 17.3 14.4 22.7zm39.8 151.1l2.5 0.4c6.6-8 12.7-15.4 18.6-25l-36.7-47.9c-8.7-11.5-6.5-27.9 4.9-36.6 11.4-8.8 27.9-6.6 36.6 4.8q0.3 0.3 0.5 0.6l14 22.6q0.8-8.5 0.3-17.2c-1-17.7-12.9-33.1-29.8-38.4l-3.1-1c-5.6 3.7-12 6.2-18.8 7.4-6 1-12.2 1-18.4-0.3-10.1 16-9.2 30.9-8.1 46.6 1.2 18.1 2.5 38.4-14.3 59.3 13.1 16.2 26.7 20.8 51.8 24.7zm-5 35.7h72.2l-10-13.2c-2.5-3.2-1.9-8 1.4-10.5 3.3-2.5 8-1.9 10.5 1.4l11.2 14.7-0.4-2.5c-2-13.2-6.6-25.6-13.6-36.8l-52.5-84.2c-3.7-4.7-10.6-5.5-15.4-1.8-4.9 3.7-5.8 10.7-2.1 15.6 6.2 8 43.7 57.1 51.5 67.2 2.5 3.3 1.9 8-1.4 10.5-3.3 2.5-8 1.9-10.5-1.4l-5.1-6.6c-5.9 8.9-11.9 16.1-16.6 21.7-5.5 6.6-0.3 0.2-19.2 25.9zm165.3 20.8c0-3.2-2.6-5.8-5.8-5.8h-470.4c-3.2 0-5.8 2.6-5.8 5.8 0 3.2 2.6 5.8 5.8 5.8h470.4c3.2 0 5.8-2.6 5.8-5.8z"/>
	</g>
</svg>