<svg version="1.2" xmlns="http://www.w3.org/2000/svg" viewBox="0 0 512 512" width="512" height="512">
	<title>023-pilates-svg</title>
	<style>
		.s0 { fill: #000000 } 
	</style>
	<g id="Layer">
		<path id="Layer" fill-rule="evenodd" class="s0" d="m512 396.3c0 11.5-9.3 20.8-20.8 20.8h-470.4c-11.5 0-20.8-9.3-20.8-20.8 0-11.5 9.3-20.8 20.8-20.8h53.7c-4.3-10.6-0.8-23.4 9.5-30.2 3.7-2.4 7.9-3.8 12.2-4q0-0.3 0-0.5c0-27.9 22.9-50.1 50.2-50.1h10.5c15.3 0 28.9 6.8 38.1 17.6 21.7-20.9 43.6-25.1 64.9-29.2 21.1-4.1 41-7.9 60.8-28.4l-35.9-19.2c-7.1-3.9-14.2-8.1-21.1-12.6l-94.4-62q0 0 0 0l-13.3-8.6c-13.7-8.9-23.8-10.6-41.9-17.5-17-6-13.8-31.2 4.3-32.7l37.7-3.1c9.2-0.8 18.1 3.6 23.1 11.3 2.5 3.3 4.8 9.1 12.3 14l27.9 13.2c3.8 1.7 5.4 6.2 3.6 10-1.8 3.7-6.2 5.3-10 3.5l-22.3-10.5-7.1 11.8 88.4 58.1c6.4 4.2 13.1 8.2 19.9 11.8l44.3 23.8q0.1 0 0.1 0c0.7 0.4-1.8-1.4 43.9 32.4 7.8-10.8 19.5-29.8 20.1-43 1.1-25.3-42-44.3-64.5-46.9l-13.2-1.6c-26.8-3.2-52.9-10.2-77.6-20.9-3.8-1.7-5.5-6.1-3.9-9.9 1.7-3.8 6.1-5.5 9.9-3.9 23.4 10.2 48 16.8 73.3 19.8l13.3 1.6c27 3.2 79.3 25.5 77.7 62.5-0.9 18.4-16.3 43.1-27.6 57.3l-14 20c-2.4 3.4-7.1 4.3-10.4 1.9-3.4-2.4-4.3-7.1-1.9-10.5l10-14.2-37.6-27.9c-23.8 26-47.8 30.6-71 35.1-20.8 4-40.4 7.8-59.7 27.6 2.6 6 4 12.5 4 19.4 0 13.3-5.4 25.6-14.1 34.7h39.4c-1.5-3.3-2.3-6.9-2.3-10.6 0-14.4 11.8-26.2 26.2-26.2q0.4 0 0.8 0.1l68.9 7.8c10.6-8.2 12.4-13.4 15.2-16.9 2.4-3.4 7.1-4.2 10.5-1.9 3.4 2.4 4.2 7.1 1.8 10.5-3.4 4.8-4.1 6.4-7.8 10.5 10.8 1.9 42.2 1.7 82.1 20 2.1 1.2 6.4 1.9 8.7 6.7h54.7c11.5 0 20.8 9.3 20.8 20.8zm-347.8-260.6l6.8 4.4 6.9-11.4c-6.3-5.6-8.9-10.9-11.2-14.2-2.1-3.1-5.6-4.9-9.4-4.6l-37.7 3.2c-1.9 0.1-2.2 3-0.5 3.6 17.6 6.7 29.4 8.8 45.1 19zm88.8 239.8h151.3c-30.4-10.7-50.8-10-77-13.7l-71.4-8.1c-6 0.2-10.8 5.1-10.8 11.2 0 4.9 3.2 9.2 7.9 10.6zm-106.6-69.8q-2 0-3.9 0.2v26.1c0 3.7 3 6.7 6.6 6.7 5.3 0 10.4 1.9 14.3 5.4l21 18.5c4.8-6.1 7.7-13.7 7.7-21.8 0-19.4-15.8-35.1-35.2-35.1 0 0-10.5 0-10.5 0zm-35.2 35.1c0 17.1 12.6 31.9 29.3 34.7h22.3c3.5-0.6 6.8-1.7 9.9-3.3l-19.2-16.9c-1.2-1-2.7-1.6-4.4-1.6-11.9 0-21.6-9.7-21.6-21.7v-20.8c-9.8 6.3-16.3 17.2-16.3 29.6zm-16.6 34.7h6c2.4-0.8 4.5-2.5 5.7-4.7-3.3-4.4-5.9-9.3-7.6-14.5-2.3-0.3-4.6 0.3-6.5 1.6-6.9 4.5-5.6 15.1 2.4 17.6zm402.4 20.8c0-3.2-2.6-5.8-5.8-5.8h-470.4c-3.2 0-5.8 2.6-5.8 5.8 0 3.2 2.6 5.8 5.8 5.8h470.4c3.2 0 5.8-2.6 5.8-5.8z"/>
	</g>
</svg>