<svg version="1.2" xmlns="http://www.w3.org/2000/svg" viewBox="0 0 512 512" width="512" height="512">
	<title>016-pilates-svg</title>
	<style>
		.s0 { fill: #000000 } 
	</style>
	<g id="Layer">
		<path id="Layer" fill-rule="evenodd" class="s0" d="m512 340.8c0 11.4-9.3 20.8-20.8 20.8h-470.4c-11.5 0-20.8-9.3-20.8-20.8 0-11.5 9.3-20.8 20.8-20.8h8.5q-0.2-1.4-0.2-2.9c0-9.9 7.4-18.1 17.2-19.2l13.1-1.3 14-42.4c1.3-3.9 5.6-6.1 9.5-4.8 4 1.3 6.1 5.6 4.8 9.5l-11.9 35.9 25.1-2.6 31.8-80.9c1.6-4.2 6.5-6 10.4-4l55.3 28.8 20.5-39.5-82.4-30q-0.1 0-0.2 0c-7.7-3.1-16.4 0.1-20.4 7.3l-17.2 51.7c-1.3 4-5.5 6.1-9.5 4.8-3.9-1.3-6-5.6-4.7-9.5l17.3-52.4q0.2-0.5 0.5-1.1c7.4-14.3 24.4-20.7 39.4-14.8 9.8 3.5 168.2 61.2 177.9 64.8 23.6 8.5 44.8 22.3 61.7 39.8 8.6-12.1 22.4-20.3 38.4-21.1l10.5-0.6c27.3-1.4 51.2 19.7 52.7 47.5q0.1 1.9 0 3.8c4.9 0.7 9.6 2.8 13.4 6.2 8.8 7.9 10.4 20.3 5.4 29.9 6.2 3.6 10.3 10.3 10.3 17.9zm-31.7-39.2c-2 5.7-4.9 11-8.7 15.6 0.9 1.2 1.8 2 3.1 2.8h9.9c3.2-1.9 5.1-5.3 4.9-9.1-0.1-2.6-1.3-5-3.2-6.8-1.7-1.5-3.8-2.4-6-2.5zm-24-42.1q-2.9-2.6-6.2-4.5l1.1 20.8c0.6 12-8.5 22.1-20.5 22.8-1.6 0.1-3.1 0.7-4.3 1.9l-18.3 17.9q2.2 0.9 4.6 1.6h27.4c16.8-3.6 28.7-19 27.8-36.2-0.5-9.4-4.6-18-11.6-24.3zm-69.1 28.5c0.4 8.1 3.5 15.6 8.6 21.4l20.1-19.7c3.8-3.7 8.8-5.8 14-6.1 3.7-0.2 6.5-3.3 6.3-7l-1.3-26.1q-2-0.1-4 0l-10.4 0.5c-19.4 1-34.3 17.6-33.3 37zm-175.5-44.9l50.5 27.4c9.7 5.2 18.5 12 26.1 20.1l1.7 1.9 52.4-5.9q0.4-0.1 0.9-0.1c13.7 0 24.9 11.2 24.9 24.9 0 3-0.6 5.9-1.6 8.6h18.6c-7.6-8.4-12.4-19.3-13-31.2-0.3-6 0.4-11.7 2.1-17.1-16-17.9-36.6-31.8-59.8-40.2l-81.4-29.7zm-98.2 58.2c-3.7 18.1-3.5 17.3-3.9 18.7h65.5c1.1-1.6 2.6-3 4.5-3.8 1.4-0.6 18.3-9.1 40.5-14.3 4-1 8.1 1.5 9 5.5 1 4.1-1.5 8.1-5.6 9.1q-6.5 1.5-12.8 3.5h137.6c3-1.7 4.9-5 4.9-8.6 0-5.3-4.2-9.7-9.5-9.9l-86.5 9.8c-4.1 0.5-7.8-2.5-8.3-6.6-0.4-4.1 2.5-7.8 6.7-8.3l15.3-1.7c-4.8-4.2-10.1-7.9-15.8-11l-56.9-30.9-54.5-28.3zm-68.2 18.7h47c3.7-2.6 2.9-6.3 4.5-12.3l-48.9 5.2c-2.2 0.2-3.8 2-3.8 4.2 0 1.2 0.5 2.2 1.2 2.9zm451.7 20.8c0-3.2-2.6-5.8-5.8-5.8h-470.4c-3.2 0-5.8 2.6-5.8 5.8 0 3.2 2.6 5.8 5.8 5.8h470.4c3.2 0 5.8-2.6 5.8-5.8z"/>
	</g>
</svg>